<mxfile host="app.diagrams.net" modified="2023-10-13T08:55:42.661Z" agent="Mozilla/5.0 (Windows NT 10.0; Win64; x64) AppleWebKit/537.36 (KHTML, like Gecko) Chrome/118.0.0.0 Safari/537.36" etag="OnPWbcKoUyMhpp4k4i7e" version="22.0.4" type="github">
  <diagram name="第 1 页" id="xDQUx-dXcyGd5x_gXoKZ">
    <mxGraphModel dx="1050" dy="581" grid="0" gridSize="10" guides="1" tooltips="1" connect="1" arrows="1" fold="1" page="0" pageScale="1" pageWidth="827" pageHeight="1169" math="0" shadow="0">
      <root>
        <mxCell id="0" />
        <mxCell id="1" parent="0" />
        <mxCell id="pDbO28LVRIxbAqs2DYXr-3" value="" style="edgeStyle=orthogonalEdgeStyle;rounded=0;orthogonalLoop=1;jettySize=auto;html=1;" edge="1" parent="1" source="pDbO28LVRIxbAqs2DYXr-1" target="pDbO28LVRIxbAqs2DYXr-2">
          <mxGeometry relative="1" as="geometry" />
        </mxCell>
        <mxCell id="pDbO28LVRIxbAqs2DYXr-1" value="端口扫描" style="rounded=1;whiteSpace=wrap;html=1;" vertex="1" parent="1">
          <mxGeometry x="60" y="205" width="120" height="60" as="geometry" />
        </mxCell>
        <mxCell id="pDbO28LVRIxbAqs2DYXr-5" value="" style="edgeStyle=orthogonalEdgeStyle;rounded=0;orthogonalLoop=1;jettySize=auto;html=1;" edge="1" parent="1" source="pDbO28LVRIxbAqs2DYXr-2" target="pDbO28LVRIxbAqs2DYXr-4">
          <mxGeometry relative="1" as="geometry" />
        </mxCell>
        <mxCell id="pDbO28LVRIxbAqs2DYXr-2" value="80" style="whiteSpace=wrap;html=1;rounded=1;" vertex="1" parent="1">
          <mxGeometry x="261" y="216" width="130" height="38" as="geometry" />
        </mxCell>
        <mxCell id="pDbO28LVRIxbAqs2DYXr-7" value="" style="edgeStyle=orthogonalEdgeStyle;rounded=0;orthogonalLoop=1;jettySize=auto;html=1;" edge="1" parent="1" source="pDbO28LVRIxbAqs2DYXr-4" target="pDbO28LVRIxbAqs2DYXr-6">
          <mxGeometry relative="1" as="geometry" />
        </mxCell>
        <mxCell id="pDbO28LVRIxbAqs2DYXr-4" value="发现其是一个 Fuel CMS&amp;nbsp; 存在一个 RCE 漏洞" style="whiteSpace=wrap;html=1;rounded=1;" vertex="1" parent="1">
          <mxGeometry x="447" y="204" width="210" height="62" as="geometry" />
        </mxCell>
        <mxCell id="pDbO28LVRIxbAqs2DYXr-9" value="" style="edgeStyle=orthogonalEdgeStyle;rounded=0;orthogonalLoop=1;jettySize=auto;html=1;" edge="1" parent="1" source="pDbO28LVRIxbAqs2DYXr-6" target="pDbO28LVRIxbAqs2DYXr-8">
          <mxGeometry relative="1" as="geometry" />
        </mxCell>
        <mxCell id="pDbO28LVRIxbAqs2DYXr-6" value="获取到 www-data 用户的密码" style="whiteSpace=wrap;html=1;rounded=1;" vertex="1" parent="1">
          <mxGeometry x="471" y="63" width="162" height="54" as="geometry" />
        </mxCell>
        <mxCell id="pDbO28LVRIxbAqs2DYXr-8" value="查看 FUEL CMS的数据库配置文件尝试密码重用切换到root 用户" style="whiteSpace=wrap;html=1;rounded=1;" vertex="1" parent="1">
          <mxGeometry x="725" y="61.5" width="188" height="57" as="geometry" />
        </mxCell>
      </root>
    </mxGraphModel>
  </diagram>
</mxfile>
